<svg version="1.1" xmlns="http://www.w3.org/2000/svg" xmlns:xlink="http://www.w3.org/1999/xlink" xmlns:a="http://ns.adobe.com/AdobeSVGViewerExtensions/3.0/" x="0px" y="0px" width="14px" height="26px" viewBox="0 0 18.1 28" style="enable-background:new 0 0 18.1 28;" xml:space="preserve">
<defs>
</defs>
<path fill="#5e5e5e" d="M2.4,8.7v5.7c0,3.5,2.9,6.4,6.4,6.4h0.6c3.5,0,6.4-2.9,6.4-6.4V8.7h2.4v5.7c0,4.5-3.4,8.3-7.8,8.7v2.5h1.5V28H6.3v-2.4h1.5
	v-2.5C3.4,22.7,0,18.9,0,14.4V8.7H2.4z M4.2,13.8v-9C4.2,2.2,6.4,0,9.1,0s4.8,2.2,4.8,4.8v9c0,2.7-2.2,4.8-4.8,4.8
	S4.2,16.5,4.2,13.8z"></path>
</svg>